<?xml version="1.0" encoding="UTF-8" standalone="no"?>
<!-- Created with Inkscape (http://www.inkscape.org/) -->

<svg
   width="200"
   height="100"
   viewBox="0 0 52.916666 26.458334"
   version="1.1"
   id="svg64126"
   xmlns:xlink="http://www.w3.org/1999/xlink"
   xmlns="http://www.w3.org/2000/svg"
   xmlns:svg="http://www.w3.org/2000/svg">
  <defs
     id="defs64123">
    <linearGradient
       id="linearGradient83872">
      <stop
         style="stop-color:#004500;stop-opacity:1;"
         offset="0"
         id="stop83870" />
    </linearGradient>
    <marker
       style="overflow:visible"
       id="Tail"
       refX="0.0"
       refY="0.0"
       orient="auto">
      <g
         transform="scale(-1.2)"
         id="g82049">
        <path
           style="fill:none;fill-rule:evenodd;stroke:context-stroke;stroke-width:0.8;stroke-linecap:round"
           d="M -3.8048674,-3.9585227 L 0.54352094,0"
           id="path82037" />
        <path
           style="fill:none;fill-rule:evenodd;stroke:context-stroke;stroke-width:0.8;stroke-linecap:round"
           d="M -1.2866832,-3.9585227 L 3.0617053,0"
           id="path82039" />
        <path
           style="fill:none;fill-rule:evenodd;stroke:context-stroke;stroke-width:0.8;stroke-linecap:round"
           d="M 1.3053582,-3.9585227 L 5.6537466,0"
           id="path82041" />
        <path
           style="fill:none;fill-rule:evenodd;stroke:context-stroke;stroke-width:0.8;stroke-linecap:round"
           d="M -3.8048674,4.1775838 L 0.54352094,0.21974226"
           id="path82043" />
        <path
           style="fill:none;fill-rule:evenodd;stroke:context-stroke;stroke-width:0.8;stroke-linecap:round"
           d="M -1.2866832,4.1775838 L 3.0617053,0.21974226"
           id="path82045" />
        <path
           style="fill:none;fill-rule:evenodd;stroke:context-stroke;stroke-width:0.8;stroke-linecap:round"
           d="M 1.3053582,4.1775838 L 5.6537466,0.21974226"
           id="path82047" />
      </g>
    </marker>
    <marker
       style="overflow:visible"
       id="TriangleInL"
       refX="0.0"
       refY="0.0"
       orient="auto">
      <path
         transform="scale(-0.8)"
         style="fill-rule:evenodd;fill:context-stroke;stroke:context-stroke;stroke-width:1.0pt"
         d="M 5.77,0.0 L -2.88,5.0 L -2.88,-5.0 L 5.77,0.0 z "
         id="path82134" />
    </marker>
    <marker
       style="overflow:visible"
       id="Arrow2Mstart"
       refX="0.0"
       refY="0.0"
       orient="auto">
      <path
         transform="scale(0.6) translate(0,0)"
         d="M 8.7185878,4.0337352 L -2.2072895,0.016013256 L 8.7185884,-4.0017078 C 6.9730900,-1.6296469 6.9831476,1.6157441 8.7185878,4.0337352 z "
         style="stroke:context-stroke;fill-rule:evenodd;fill:context-stroke;stroke-width:0.62500000;stroke-linejoin:round"
         id="path82025" />
    </marker>
    <marker
       style="overflow:visible"
       id="Arrow2Lstart"
       refX="0.0"
       refY="0.0"
       orient="auto">
      <path
         transform="scale(1.1) translate(1,0)"
         d="M 8.7185878,4.0337352 L -2.2072895,0.016013256 L 8.7185884,-4.0017078 C 6.9730900,-1.6296469 6.9831476,1.6157441 8.7185878,4.0337352 z "
         style="stroke:context-stroke;fill-rule:evenodd;fill:context-stroke;stroke-width:0.62500000;stroke-linejoin:round"
         id="path82019" />
    </marker>
    <marker
       style="overflow:visible;"
       id="Arrow2Send"
       refX="0.0"
       refY="0.0"
       orient="auto">
      <path
         transform="scale(0.3) rotate(180) translate(-2.3,0)"
         d="M 8.7185878,4.0337352 L -2.2072895,0.016013256 L 8.7185884,-4.0017078 C 6.9730900,-1.6296469 6.9831476,1.6157441 8.7185878,4.0337352 z "
         style="stroke:context-stroke;fill-rule:evenodd;fill:context-stroke;stroke-width:0.62500000;stroke-linejoin:round;"
         id="path82034" />
    </marker>
    <marker
       style="overflow:visible;"
       id="Arrow2Mend"
       refX="0.0"
       refY="0.0"
       orient="auto">
      <path
         transform="scale(0.6) rotate(180) translate(0,0)"
         d="M 8.7185878,4.0337352 L -2.2072895,0.016013256 L 8.7185884,-4.0017078 C 6.9730900,-1.6296469 6.9831476,1.6157441 8.7185878,4.0337352 z "
         style="stroke:context-stroke;fill-rule:evenodd;fill:context-stroke;stroke-width:0.62500000;stroke-linejoin:round;"
         id="path82028" />
    </marker>
    <marker
       style="overflow:visible;"
       id="Arrow1Mend"
       refX="0.0"
       refY="0.0"
       orient="auto">
      <path
         transform="scale(0.4) rotate(180) translate(10,0)"
         style="fill-rule:evenodd;fill:context-stroke;stroke:context-stroke;stroke-width:1.0pt;"
         d="M 0.0,0.0 L 5.0,-5.0 L -12.5,0.0 L 5.0,5.0 L 0.0,0.0 z "
         id="path82010" />
    </marker>
    <marker
       style="overflow:visible;"
       id="Arrow1Lend"
       refX="0.0"
       refY="0.0"
       orient="auto">
      <path
         transform="scale(0.8) rotate(180) translate(12.5,0)"
         style="fill-rule:evenodd;fill:context-stroke;stroke:context-stroke;stroke-width:1.0pt;"
         d="M 0.0,0.0 L 5.0,-5.0 L -12.5,0.0 L 5.0,5.0 L 0.0,0.0 z "
         id="path82004" />
    </marker>
    <linearGradient
       xlink:href="#linearGradient83872"
       id="linearGradient83874"
       x1="0.43010036"
       y1="5.7509855"
       x2="51.614201"
       y2="5.7509855"
       gradientUnits="userSpaceOnUse" />
  </defs>
  <g
     id="layer4"
     style="display:none">
    <rect
       style="display:inline;fill:#dee544;fill-opacity:1;stroke:none;stroke-width:0.807616;stroke-miterlimit:4;stroke-dasharray:none;stroke-opacity:1"
       id="rect133638"
       width="39.334572"
       height="12.382874"
       x="4.6610532"
       y="15.035088"
       ry="0"
       rx="0" />
  </g>
  <g
     id="layer1"
     style="display:inline">
    <text
       xml:space="preserve"
       style="font-style:normal;font-variant:normal;font-weight:normal;font-stretch:normal;font-size:7.56418px;line-height:1.25;font-family:Georgia;-inkscape-font-specification:Georgia;fill:#192744;fill-opacity:1;stroke:none;stroke-width:0.189108"
       x="3.8470533"
       y="8.3696384"
       id="text64828"><tspan
         style="font-style:normal;font-variant:normal;font-weight:normal;font-stretch:normal;font-family:Georgia;-inkscape-font-specification:Georgia;fill:#192744;fill-opacity:1;stroke-width:0.189108"
         x="3.8470533"
         y="8.3696384"
         id="tspan65820">FLASHBACK</tspan></text>
    <path
       id="rect1491"
       style="fill:#192744;fill-opacity:1;stroke:none;stroke-width:1.35037;stroke-dasharray:1.35037, 2.70073"
       d="m 18.195241,14.212571 c -0.711528,0 -1.284101,0.531123 -1.284101,1.191142 V 20.9827 c 0,0.660019 0.572573,1.191142 1.284101,1.191142 h 16.526186 c 0.711528,0 1.284099,-0.531123 1.284099,-1.191142 v -5.578987 c 0,-0.660019 -0.572571,-1.191142 -1.284099,-1.191142 z m 15.287209,1.761133 c 0.09854,0 0.197277,0.0086 0.295817,0.02635 0.100829,0.01555 0.194808,0.03778 0.281889,0.06666 0.08937,0.02666 0.168572,0.05799 0.237321,0.09353 0.06875,0.03333 0.113078,0.06098 0.133703,0.0832 0.02291,0.01999 0.03825,0.0368 0.04513,0.05013 0.0069,0.01111 0.01269,0.02651 0.01728,0.04651 0.0046,0.01778 0.0078,0.04 0.01003,0.06666 0.0023,0.02666 0.0033,0.06114 0.0033,0.103353 0,0.03999 -0.002,0.07587 -0.0067,0.106971 -0.0023,0.0311 -0.007,0.05736 -0.01392,0.07958 -0.0069,0.01999 -0.01688,0.03592 -0.03064,0.04703 -0.01147,0.0089 -0.02518,0.01292 -0.04122,0.01292 -0.02522,0 -0.06534,-0.01541 -0.120333,-0.04651 -0.05271,-0.0311 -0.118181,-0.06558 -0.196097,-0.103353 -0.07791,-0.03999 -0.170841,-0.07535 -0.278547,-0.106454 -0.105422,-0.03332 -0.224739,-0.05013 -0.357656,-0.05013 -0.123747,0 -0.231448,0.0168 -0.323113,0.05013 -0.09167,0.0311 -0.167154,0.07329 -0.226737,0.126608 -0.05958,0.05332 -0.103912,0.116337 -0.133702,0.189652 -0.0298,0.07332 -0.04513,0.151376 -0.04513,0.233577 0,0.119971 0.02905,0.223414 0.08635,0.310059 0.05729,0.08664 0.132781,0.16331 0.226736,0.22996 0.09625,0.06665 0.205002,0.127393 0.326457,0.182935 0.121457,0.05554 0.244986,0.112252 0.371026,0.170015 0.126038,0.05554 0.250123,0.11768 0.371581,0.186552 0.121454,0.06665 0.229158,0.146985 0.323114,0.240296 0.09625,0.09109 0.172791,0.199959 0.230079,0.326595 0.05958,0.124413 0.08969,0.271798 0.08969,0.442867 0,0.202172 -0.03908,0.38228 -0.11699,0.540018 -0.07562,0.157739 -0.182276,0.291993 -0.319771,0.403077 -0.135209,0.108861 -0.295709,0.190954 -0.48133,0.246496 -0.18333,0.05554 -0.381298,0.08372 -0.59442,0.08372 -0.148954,0 -0.287819,-0.01225 -0.416147,-0.03669 -0.126042,-0.02444 -0.239555,-0.05437 -0.340386,-0.08992 -0.09854,-0.03555 -0.181943,-0.0723 -0.250692,-0.110071 -0.06646,-0.03777 -0.113445,-0.06998 -0.140945,-0.09664 -0.02522,-0.02666 -0.04475,-0.06026 -0.0585,-0.100252 -0.01147,-0.04221 -0.01726,-0.09753 -0.01726,-0.166398 0,-0.04888 0.002,-0.08879 0.0067,-0.11989 0.0046,-0.03332 0.01144,-0.0601 0.02062,-0.0801 0.0092,-0.01999 0.02079,-0.03313 0.03454,-0.03979 0.01375,-0.0089 0.03013,-0.01344 0.04847,-0.01344 0.03208,0 0.07641,0.01856 0.133703,0.05633 0.05958,0.03777 0.135074,0.07907 0.226739,0.123507 0.09167,0.04443 0.202024,0.08662 0.330355,0.126607 0.130622,0.03777 0.280552,0.05684 0.450131,0.05684 0.128332,0 0.244997,-0.0168 0.350414,-0.05013 0.107707,-0.03332 0.199579,-0.08006 0.275202,-0.140043 0.07792,-0.06221 0.137579,-0.137476 0.178829,-0.226343 0.04125,-0.08887 0.06184,-0.190036 0.06184,-0.303341 0,-0.122192 -0.02849,-0.226514 -0.08579,-0.313159 -0.05729,-0.08664 -0.132781,-0.162431 -0.226737,-0.22686 -0.09395,-0.06665 -0.201659,-0.126513 -0.323113,-0.179834 -0.119165,-0.05554 -0.242199,-0.111373 -0.368241,-0.166914 -0.126038,-0.05776 -0.248517,-0.120781 -0.36768,-0.189653 -0.119165,-0.06887 -0.225815,-0.150086 -0.319771,-0.243396 -0.09396,-0.09331 -0.170498,-0.202181 -0.23008,-0.326595 -0.05729,-0.126635 -0.08579,-0.27769 -0.08579,-0.453202 0,-0.179956 0.03271,-0.340109 0.09917,-0.480074 0.06875,-0.142187 0.162725,-0.261036 0.28189,-0.356568 0.121458,-0.09553 0.26508,-0.167647 0.430075,-0.216524 0.167289,-0.0511 0.346771,-0.07648 0.539268,-0.07648 z m -7.424389,0.04341 c 0.07104,0 0.126994,0.0023 0.168243,0.0067 0.04125,0.0022 0.07241,0.0076 0.09304,0.01654 0.02292,0.0089 0.03769,0.02114 0.04457,0.03669 0.0092,0.01555 0.01603,0.03551 0.02061,0.05994 l 0.999982,3.612182 h 0.0039 l 0.948731,-3.605464 c 0.0069,-0.02444 0.01479,-0.04439 0.02395,-0.05994 0.01146,-0.01777 0.02833,-0.03142 0.05125,-0.04031 0.02292,-0.0089 0.05513,-0.01519 0.09638,-0.01964 0.04354,-0.0044 0.09949,-0.0067 0.168243,-0.0067 0.06417,0 0.114863,0.0023 0.15153,0.0067 0.03896,0.0044 0.06956,0.01075 0.09247,0.01964 0.02292,0.0089 0.03931,0.02253 0.04847,0.04031 0.01146,0.01555 0.02042,0.03551 0.0273,0.05994 l 1.021153,3.605464 h 0.0067 l 0.979929,-3.609082 c 0.0069,-0.02222 0.01375,-0.04078 0.02062,-0.05633 0.0069,-0.01777 0.02059,-0.03142 0.04122,-0.04031 0.02291,-0.0089 0.05351,-0.01519 0.09248,-0.01964 0.04124,-0.0044 0.09509,-0.0067 0.161555,-0.0067 0.06875,0 0.1226,0.0032 0.161558,0.0098 0.04125,0.0044 0.07136,0.01442 0.08969,0.02997 0.01834,0.01555 0.02624,0.03778 0.02396,0.06666 0,0.02888 -0.0058,0.06879 -0.01726,0.119889 l -1.17881,3.979086 c -0.0092,0.0311 -0.02291,0.05649 -0.04122,0.07648 -0.01834,0.01777 -0.04368,0.0323 -0.07577,0.04341 -0.03208,0.0089 -0.07221,0.01571 -0.120332,0.02015 -0.04583,0.0044 -0.103395,0.0067 -0.172142,0.0067 -0.07104,0 -0.131754,-0.0023 -0.18217,-0.0067 -0.04812,-0.0044 -0.08825,-0.01127 -0.120332,-0.02015 -0.03208,-0.01111 -0.05582,-0.02564 -0.07186,-0.04341 -0.01604,-0.01999 -0.02872,-0.04538 -0.03788,-0.07648 l -0.931461,-3.255616 h -0.0067 l -0.859596,3.255616 c -0.0069,0.0311 -0.0185,0.05649 -0.03454,0.07648 -0.01604,0.01777 -0.03873,0.0323 -0.06852,0.04341 -0.0298,0.0089 -0.06887,0.01571 -0.11699,0.02015 -0.04583,0.0044 -0.105498,0.0067 -0.178827,0.0067 -0.07563,0 -0.138439,-0.0023 -0.188855,-0.0067 -0.05042,-0.0044 -0.09159,-0.01127 -0.123675,-0.02015 -0.03208,-0.01111 -0.05743,-0.02564 -0.07577,-0.04341 -0.01604,-0.01999 -0.02766,-0.04538 -0.03454,-0.07648 l -1.175468,-3.982186 c -0.01376,-0.0511 -0.02167,-0.09101 -0.02395,-0.119889 0,-0.02888 0.0089,-0.05111 0.0273,-0.06666 0.02062,-0.01555 0.05284,-0.02553 0.09638,-0.02997 0.04354,-0.0044 0.102155,-0.0067 0.175484,-0.0067 z m -4.812731,0.0098 c 0.05042,0 0.09425,0.0023 0.130916,0.0067 0.03666,0.0044 0.06517,0.01215 0.08579,0.02325 0.02062,0.0089 0.0354,0.02026 0.04457,0.03359 0.0092,0.01333 0.01393,0.02734 0.01393,0.04289 v 3.979085 c 0,0.04443 -0.0079,0.08258 -0.02395,0.113688 -0.01375,0.0311 -0.03329,0.05649 -0.05849,0.07648 -0.02292,0.01999 -0.04932,0.03452 -0.07911,0.04341 -0.02979,0.0089 -0.05991,0.01344 -0.08969,0.01344 h -0.188855 c -0.05958,0 -0.112383,-0.0059 -0.158214,-0.01705 -0.04354,-0.01333 -0.08577,-0.03556 -0.127018,-0.06666 -0.03896,-0.03333 -0.07908,-0.07778 -0.120332,-0.133325 -0.03896,-0.05554 -0.08279,-0.126262 -0.130917,-0.212907 l -1.402205,-2.45308 C 19.068425,17.349789 18.993984,17.21781 18.91836,17.080066 18.84503,16.940101 18.776401,16.804452 18.712236,16.673373 h -0.0072 c 0.0046,0.15996 0.0083,0.323267 0.01056,0.489892 0.0023,0.166626 0.0033,0.332207 0.0033,0.496611 v 2.602942 c 0,0.01555 -0.0047,0.03096 -0.01393,0.04651 -0.0092,0.01333 -0.025,0.02418 -0.04791,0.03307 -0.02062,0.0067 -0.04913,0.01261 -0.08579,0.01705 -0.03438,0.0067 -0.07926,0.0098 -0.134261,0.0098 -0.055,0 -0.100937,-0.0032 -0.137601,-0.0098 -0.03438,-0.0044 -0.06183,-0.01039 -0.08245,-0.01705 -0.02062,-0.0089 -0.0354,-0.01974 -0.04457,-0.03307 -0.0092,-0.01555 -0.01393,-0.03096 -0.01393,-0.04651 v -3.979086 c 0,-0.08887 0.02534,-0.1524 0.07576,-0.190169 0.05041,-0.03777 0.105314,-0.05684 0.1649,-0.05684 h 0.281889 c 0.06646,0 0.121359,0.0059 0.1649,0.01705 0.04583,0.01111 0.08595,0.02967 0.120332,0.05633 0.03666,0.02444 0.07098,0.06031 0.103061,0.10697 0.03438,0.04443 0.07134,0.101144 0.110305,0.170016 l 1.07909,1.892391 c 0.06646,0.115526 0.130881,0.228947 0.192754,0.34003 0.06187,0.108862 0.121538,0.216855 0.178828,0.323495 0.05729,0.10664 0.113243,0.211841 0.168243,0.31626 0.05729,0.102197 0.113242,0.20564 0.168241,0.310058 h 0.0039 c -0.0046,-0.175512 -0.0083,-0.357377 -0.01056,-0.54622 v -0.550354 -2.339392 c 0,-0.01555 0.0047,-0.02956 0.01393,-0.04289 0.0092,-0.01333 0.02394,-0.0247 0.04457,-0.03359 0.02292,-0.01111 0.05142,-0.01881 0.08579,-0.02325 0.03666,-0.0044 0.08366,-0.0067 0.140945,-0.0067 z m 1.677408,0.0098 h 2.110828 c 0.01834,0 0.03416,0.0045 0.04791,0.01344 0.01604,0.0089 0.02872,0.02341 0.03788,0.04341 0.0092,0.01999 0.01603,0.04538 0.02061,0.07648 0.0069,0.02888 0.01056,0.06564 0.01056,0.110071 0,0.03999 -0.0037,0.07587 -0.01056,0.10697 -0.0046,0.02888 -0.01145,0.05287 -0.02061,0.07286 -0.0092,0.01778 -0.02184,0.03142 -0.03788,0.04031 -0.01375,0.0089 -0.02958,0.01344 -0.04791,0.01344 H 23.29432 v 1.352889 h 1.491897 c 0.01833,0 0.03416,0.0054 0.04791,0.01654 0.01604,0.0089 0.02872,0.02202 0.03788,0.03979 0.01146,0.01777 0.01937,0.04228 0.02395,0.07338 0.0046,0.0311 0.0067,0.06786 0.0067,0.11007 0,0.03999 -0.0022,0.07447 -0.0067,0.103353 -0.0046,0.02888 -0.0125,0.05199 -0.02395,0.06976 -0.0092,0.01777 -0.02184,0.03142 -0.03788,0.04031 -0.01375,0.0067 -0.02958,0.0098 -0.04791,0.0098 H 23.29432 v 1.543058 h 1.763202 c 0.01833,0 0.03416,0.0045 0.04791,0.01344 0.01604,0.0089 0.02976,0.02341 0.04122,0.04341 0.01146,0.01778 0.01993,0.04176 0.02452,0.07286 0.0046,0.02888 0.0067,0.06564 0.0067,0.11007 0,0.03999 -0.0022,0.07587 -0.0067,0.106971 -0.0046,0.02888 -0.01306,0.05338 -0.02452,0.07338 -0.01146,0.01999 -0.02518,0.03401 -0.04122,0.04289 -0.01376,0.0089 -0.02958,0.01344 -0.04791,0.01344 h -2.134784 c -0.0527,0 -0.102845,-0.0168 -0.150972,-0.05013 -0.04584,-0.03555 -0.06908,-0.09629 -0.06908,-0.182934 v -3.84576 c 0,-0.08665 0.02324,-0.146509 0.06908,-0.179834 0.04812,-0.03555 0.09826,-0.05374 0.150972,-0.05374 z" />
    <text
       xml:space="preserve"
       style="font-style:normal;font-variant:normal;font-weight:normal;font-stretch:normal;font-size:10.5833px;line-height:1.25;font-family:Calibri;-inkscape-font-specification:Calibri;stroke-width:0.264583"
       x="-18.863352"
       y="-10.523765"
       id="text3432"><tspan
         id="tspan3430"
         style="font-style:normal;font-variant:normal;font-weight:normal;font-stretch:normal;font-family:Calibri;-inkscape-font-specification:Calibri;stroke-width:0.264583"
         x="-18.863352"
         y="-10.523765" /></text>
  </g>
  <g
     id="layer3"
     style="display:inline">
    <g
       id="g106966"
       transform="translate(19.903601,-4.6385929)"
       style="stroke-width:0.5;stroke-miterlimit:4;stroke-dasharray:none">
      <path
         style="fill:none;stroke:#192744;stroke-width:0.5;stroke-linecap:butt;stroke-linejoin:miter;stroke-miterlimit:4;stroke-dasharray:none;stroke-opacity:1"
         d="M 8.6853326,17.116537 6.6007434,14.738468 4.4905944,17.107025"
         id="path83647" />
    </g>
  </g>
</svg>
